<svg width="154" height="30" viewBox="0 0 154 30" fill="none" xmlns="http://www.w3.org/2000/svg">
<path fill-rule="evenodd" clip-rule="evenodd" d="M0.397522 13.2101L7.06543 1.69149L7.37724 9.27441L0.397522 13.2101Z" fill="white"/>
<path fill-rule="evenodd" clip-rule="evenodd" d="M8.44554 0.0234604L8.73547 8.46199L23.2108 0.0234604H8.44554Z" fill="white"/>
<path fill-rule="evenodd" clip-rule="evenodd" d="M9.70686 9.55702L25.2817 0.418053L28.791 17.0526L9.70686 9.55702Z" fill="white"/>
<path fill-rule="evenodd" clip-rule="evenodd" d="M30.2033 17.038L33.9023 14.7322L27.4039 3.52747L30.2033 17.038Z" fill="white"/>
<path fill-rule="evenodd" clip-rule="evenodd" d="M25.5199 29.634L18.7621 25.7195L32.7588 17.1L25.5199 29.634Z" fill="white"/>
<path fill-rule="evenodd" clip-rule="evenodd" d="M17.6879 24.7586L28.1559 18.2649L9.6918 11.0488L17.6879 24.7586Z" fill="white"/>
<path fill-rule="evenodd" clip-rule="evenodd" d="M0.0656586 14.9922L7.85208 10.5978L15.5757 23.9031L0.0656586 14.9922Z" fill="white"/>
<path fill-rule="evenodd" clip-rule="evenodd" d="M0.543884 16.9106L8.07117 29.8905H23.1732L0.543884 16.9106Z" fill="white"/>
<path fill-rule="evenodd" clip-rule="evenodd" d="M54.044 13.234C53.948 12.862 53.816 12.52 53.648 12.208C53.48 11.896 53.264 11.626 53 11.398C52.736 11.17 52.427 10.993 52.073 10.867C51.719 10.741 51.308 10.678 50.84 10.678C50.156 10.678 49.565 10.816 49.067 11.092C48.569 11.368 48.164 11.737 47.852 12.199C47.54 12.661 47.309 13.186 47.159 13.774C47.009 14.362 46.934 14.962 46.934 15.574C46.934 16.186 47.009 16.786 47.159 17.374C47.309 17.962 47.54 18.487 47.852 18.949C48.164 19.411 48.569 19.78 49.067 20.056C49.565 20.332 50.156 20.47 50.84 20.47C51.344 20.47 51.788 20.383 52.172 20.209C52.556 20.035 52.886 19.795 53.162 19.489C53.438 19.183 53.654 18.826 53.81 18.418C53.966 18.01 54.068 17.572 54.116 17.104H56.312C56.264 17.872 56.099 18.574 55.817 19.21C55.535 19.846 55.154 20.395 54.674 20.857C54.194 21.319 53.63 21.676 52.982 21.928C52.334 22.18 51.62 22.306 50.84 22.306C49.88 22.306 49.019 22.129 48.257 21.775C47.495 21.421 46.85 20.938 46.322 20.326C45.794 19.714 45.389 19 45.107 18.184C44.825 17.368 44.684 16.498 44.684 15.574C44.684 14.662 44.825 13.798 45.107 12.982C45.389 12.166 45.794 11.452 46.322 10.84C46.85 10.228 47.495 9.742 48.257 9.382C49.019 9.022 49.88 8.842 50.84 8.842C51.56 8.842 52.238 8.941 52.874 9.139C53.51 9.337 54.071 9.625 54.557 10.003C55.043 10.381 55.436 10.84 55.736 11.38C56.036 11.92 56.222 12.538 56.294 13.234H54.044ZM62.0045 22.252C61.2605 22.252 60.5975 22.129 60.0155 21.883C59.4335 21.637 58.9415 21.298 58.5395 20.866C58.1375 20.434 57.8315 19.918 57.6215 19.318C57.4115 18.718 57.3065 18.058 57.3065 17.338C57.3065 16.63 57.4115 15.976 57.6215 15.376C57.8315 14.776 58.1375 14.26 58.5395 13.828C58.9415 13.396 59.4335 13.057 60.0155 12.811C60.5975 12.565 61.2605 12.442 62.0045 12.442C62.7485 12.442 63.4115 12.565 63.9935 12.811C64.5755 13.057 65.0675 13.396 65.4695 13.828C65.8715 14.26 66.1775 14.776 66.3875 15.376C66.5975 15.976 66.7025 16.63 66.7025 17.338C66.7025 18.058 66.5975 18.718 66.3875 19.318C66.1775 19.918 65.8715 20.434 65.4695 20.866C65.0675 21.298 64.5755 21.637 63.9935 21.883C63.4115 22.129 62.7485 22.252 62.0045 22.252ZM62.0045 20.632C62.4605 20.632 62.8565 20.536 63.1925 20.344C63.5285 20.152 63.8045 19.9 64.0205 19.588C64.2365 19.276 64.3955 18.925 64.4975 18.535C64.5995 18.145 64.6505 17.746 64.6505 17.338C64.6505 16.942 64.5995 16.546 64.4975 16.15C64.3955 15.754 64.2365 15.403 64.0205 15.097C63.8045 14.791 63.5285 14.542 63.1925 14.35C62.8565 14.158 62.4605 14.062 62.0045 14.062C61.5485 14.062 61.1525 14.158 60.8165 14.35C60.4805 14.542 60.2045 14.791 59.9885 15.097C59.7725 15.403 59.6135 15.754 59.5115 16.15C59.4095 16.546 59.3585 16.942 59.3585 17.338C59.3585 17.746 59.4095 18.145 59.5115 18.535C59.6135 18.925 59.7725 19.276 59.9885 19.588C60.2045 19.9 60.4805 20.152 60.8165 20.344C61.1525 20.536 61.5485 20.632 62.0045 20.632ZM68.075 12.694H70.019V14.062L70.055 14.098C70.367 13.582 70.775 13.177 71.279 12.883C71.783 12.589 72.341 12.442 72.953 12.442C73.973 12.442 74.777 12.706 75.365 13.234C75.953 13.762 76.247 14.554 76.247 15.61V22H74.195V16.15C74.171 15.418 74.015 14.887 73.727 14.557C73.439 14.227 72.989 14.062 72.377 14.062C72.029 14.062 71.717 14.125 71.441 14.251C71.165 14.377 70.931 14.551 70.739 14.773C70.547 14.995 70.397 15.256 70.289 15.556C70.181 15.856 70.127 16.174 70.127 16.51V22H68.075V12.694ZM77.1335 12.694H78.6815V9.904H80.7335V12.694H82.5875V14.224H80.7335V19.192C80.7335 19.408 80.7425 19.594 80.7605 19.75C80.7785 19.906 80.8205 20.038 80.8865 20.146C80.9525 20.254 81.0515 20.335 81.1835 20.389C81.3155 20.443 81.4955 20.47 81.7235 20.47C81.8675 20.47 82.0115 20.467 82.1555 20.461C82.2995 20.455 82.4435 20.434 82.5875 20.398V21.982C82.3595 22.006 82.1375 22.03 81.9215 22.054C81.7055 22.078 81.4835 22.09 81.2555 22.09C80.7155 22.09 80.2805 22.039 79.9505 21.937C79.6205 21.835 79.3625 21.685 79.1765 21.487C78.9905 21.289 78.8645 21.04 78.7985 20.74C78.7325 20.44 78.6935 20.098 78.6815 19.714V14.224H77.1335V12.694ZM83.726 12.694H85.652V14.494H85.688C85.748 14.242 85.865 13.996 86.039 13.756C86.213 13.516 86.423 13.297 86.669 13.099C86.915 12.901 87.188 12.742 87.488 12.622C87.788 12.502 88.094 12.442 88.406 12.442C88.646 12.442 88.811 12.448 88.901 12.46C88.991 12.472 89.084 12.484 89.18 12.496V14.476C89.036 14.452 88.889 14.431 88.739 14.413C88.589 14.395 88.442 14.386 88.298 14.386C87.95 14.386 87.623 14.455 87.317 14.593C87.011 14.731 86.744 14.935 86.516 15.205C86.288 15.475 86.108 15.808 85.976 16.204C85.844 16.6 85.778 17.056 85.778 17.572V22H83.726V12.694ZM97.5185 19.93C97.5185 20.182 97.5515 20.362 97.6175 20.47C97.6835 20.578 97.8125 20.632 98.0045 20.632H98.2205C98.3045 20.632 98.4005 20.62 98.5085 20.596V22.018C98.4365 22.042 98.3435 22.069 98.2295 22.099C98.1155 22.129 97.9985 22.156 97.8785 22.18C97.7585 22.204 97.6385 22.222 97.5185 22.234C97.3985 22.246 97.2965 22.252 97.2125 22.252C96.7925 22.252 96.4445 22.168 96.1685 22C95.8925 21.832 95.7125 21.538 95.6285 21.118C95.2205 21.514 94.7195 21.802 94.1255 21.982C93.5315 22.162 92.9585 22.252 92.4065 22.252C91.9865 22.252 91.5845 22.195 91.2005 22.081C90.8165 21.967 90.4775 21.799 90.1835 21.577C89.8895 21.355 89.6555 21.073 89.4815 20.731C89.3075 20.389 89.2205 19.99 89.2205 19.534C89.2205 18.958 89.3255 18.49 89.5355 18.13C89.7455 17.77 90.0215 17.488 90.3635 17.284C90.7055 17.08 91.0895 16.933 91.5155 16.843C91.9415 16.753 92.3705 16.684 92.8025 16.636C93.1745 16.564 93.5285 16.513 93.8645 16.483C94.2005 16.453 94.4975 16.402 94.7555 16.33C95.0135 16.258 95.2175 16.147 95.3675 15.997C95.5175 15.847 95.5925 15.622 95.5925 15.322C95.5925 15.058 95.5295 14.842 95.4035 14.674C95.2775 14.506 95.1215 14.377 94.9355 14.287C94.7495 14.197 94.5425 14.137 94.3145 14.107C94.0865 14.077 93.8705 14.062 93.6665 14.062C93.0905 14.062 92.6165 14.182 92.2445 14.422C91.8725 14.662 91.6625 15.034 91.6145 15.538H89.5625C89.5985 14.938 89.7425 14.44 89.9945 14.044C90.2465 13.648 90.5675 13.33 90.9575 13.09C91.3475 12.85 91.7885 12.682 92.2805 12.586C92.7725 12.49 93.2765 12.442 93.7925 12.442C94.2485 12.442 94.6985 12.49 95.1425 12.586C95.5865 12.682 95.9855 12.838 96.3395 13.054C96.6935 13.27 96.9785 13.549 97.1945 13.891C97.4105 14.233 97.5185 14.65 97.5185 15.142V19.93ZM95.4665 17.338C95.1545 17.542 94.7705 17.665 94.3145 17.707C93.8585 17.749 93.4025 17.812 92.9465 17.896C92.7305 17.932 92.5205 17.983 92.3165 18.049C92.1125 18.115 91.9325 18.205 91.7765 18.319C91.6205 18.433 91.4975 18.583 91.4075 18.769C91.3175 18.955 91.2725 19.18 91.2725 19.444C91.2725 19.672 91.3385 19.864 91.4705 20.02C91.6025 20.176 91.7615 20.299 91.9475 20.389C92.1335 20.479 92.3375 20.542 92.5595 20.578C92.7815 20.614 92.9825 20.632 93.1625 20.632C93.3905 20.632 93.6365 20.602 93.9005 20.542C94.1645 20.482 94.4135 20.38 94.6475 20.236C94.8815 20.092 95.0765 19.909 95.2325 19.687C95.3885 19.465 95.4665 19.192 95.4665 18.868V17.338ZM105.677 15.808C105.593 15.232 105.362 14.797 104.984 14.503C104.606 14.209 104.129 14.062 103.553 14.062C103.289 14.062 103.007 14.107 102.707 14.197C102.407 14.287 102.131 14.455 101.879 14.701C101.627 14.947 101.417 15.289 101.249 15.727C101.081 16.165 100.997 16.738 100.997 17.446C100.997 17.83 101.042 18.214 101.132 18.598C101.222 18.982 101.366 19.324 101.564 19.624C101.762 19.924 102.017 20.167 102.329 20.353C102.641 20.539 103.019 20.632 103.463 20.632C104.063 20.632 104.558 20.446 104.948 20.074C105.338 19.702 105.581 19.18 105.677 18.508H107.729C107.537 19.72 107.078 20.647 106.352 21.289C105.626 21.931 104.663 22.252 103.463 22.252C102.731 22.252 102.086 22.129 101.528 21.883C100.97 21.637 100.499 21.301 100.115 20.875C99.731 20.449 99.44 19.942 99.242 19.354C99.044 18.766 98.945 18.13 98.945 17.446C98.945 16.75 99.041 16.096 99.233 15.484C99.425 14.872 99.713 14.341 100.097 13.891C100.481 13.441 100.958 13.087 101.528 12.829C102.098 12.571 102.767 12.442 103.535 12.442C104.075 12.442 104.588 12.511 105.074 12.649C105.56 12.787 105.992 12.994 106.37 13.27C106.748 13.546 107.057 13.894 107.297 14.314C107.537 14.734 107.681 15.232 107.729 15.808H105.677ZM108.129 12.694H109.677V9.904H111.729V12.694H113.583V14.224H111.729V19.192C111.729 19.408 111.738 19.594 111.756 19.75C111.774 19.906 111.816 20.038 111.882 20.146C111.948 20.254 112.047 20.335 112.179 20.389C112.311 20.443 112.491 20.47 112.719 20.47C112.863 20.47 113.007 20.467 113.151 20.461C113.295 20.455 113.439 20.434 113.583 20.398V21.982C113.355 22.006 113.133 22.03 112.917 22.054C112.701 22.078 112.479 22.09 112.251 22.09C111.711 22.09 111.276 22.039 110.946 21.937C110.616 21.835 110.358 21.685 110.172 21.487C109.986 21.289 109.86 21.04 109.794 20.74C109.728 20.44 109.689 20.098 109.677 19.714V14.224H108.129V12.694ZM115.01 9.148H117.26V20.056H123.794V22H115.01V9.148ZM132.51 19.93C132.51 20.182 132.543 20.362 132.609 20.47C132.675 20.578 132.804 20.632 132.996 20.632H133.212C133.296 20.632 133.392 20.62 133.5 20.596V22.018C133.428 22.042 133.335 22.069 133.221 22.099C133.107 22.129 132.99 22.156 132.87 22.18C132.75 22.204 132.63 22.222 132.51 22.234C132.39 22.246 132.288 22.252 132.204 22.252C131.784 22.252 131.437 22.168 131.16 22C130.884 21.832 130.704 21.538 130.62 21.118C130.212 21.514 129.711 21.802 129.117 21.982C128.523 22.162 127.95 22.252 127.398 22.252C126.978 22.252 126.576 22.195 126.192 22.081C125.808 21.967 125.469 21.799 125.175 21.577C124.881 21.355 124.647 21.073 124.473 20.731C124.299 20.389 124.212 19.99 124.212 19.534C124.212 18.958 124.317 18.49 124.527 18.13C124.737 17.77 125.013 17.488 125.355 17.284C125.697 17.08 126.081 16.933 126.507 16.843C126.933 16.753 127.362 16.684 127.794 16.636C128.166 16.564 128.52 16.513 128.856 16.483C129.193 16.453 129.489 16.402 129.747 16.33C130.005 16.258 130.209 16.147 130.359 15.997C130.509 15.847 130.584 15.622 130.584 15.322C130.584 15.058 130.521 14.842 130.395 14.674C130.269 14.506 130.113 14.377 129.927 14.287C129.741 14.197 129.534 14.137 129.306 14.107C129.078 14.077 128.862 14.062 128.658 14.062C128.082 14.062 127.608 14.182 127.236 14.422C126.864 14.662 126.654 15.034 126.606 15.538H124.554C124.59 14.938 124.734 14.44 124.986 14.044C125.238 13.648 125.559 13.33 125.949 13.09C126.339 12.85 126.78 12.682 127.272 12.586C127.764 12.49 128.268 12.442 128.784 12.442C129.24 12.442 129.69 12.49 130.134 12.586C130.579 12.682 130.977 12.838 131.331 13.054C131.685 13.27 131.97 13.549 132.186 13.891C132.402 14.233 132.51 14.65 132.51 15.142V19.93ZM130.458 17.338C130.146 17.542 129.762 17.665 129.306 17.707C128.85 17.749 128.394 17.812 127.938 17.896C127.722 17.932 127.512 17.983 127.308 18.049C127.104 18.115 126.924 18.205 126.768 18.319C126.612 18.433 126.489 18.583 126.399 18.769C126.309 18.955 126.264 19.18 126.264 19.444C126.264 19.672 126.33 19.864 126.462 20.02C126.594 20.176 126.753 20.299 126.939 20.389C127.125 20.479 127.329 20.542 127.551 20.578C127.773 20.614 127.974 20.632 128.154 20.632C128.382 20.632 128.628 20.602 128.892 20.542C129.156 20.482 129.405 20.38 129.639 20.236C129.873 20.092 130.068 19.909 130.224 19.687C130.38 19.465 130.458 19.192 130.458 18.868V17.338ZM134.387 12.694H136.331V14.062L136.367 14.098C136.679 13.582 137.087 13.177 137.591 12.883C138.095 12.589 138.653 12.442 139.265 12.442C140.285 12.442 141.089 12.706 141.677 13.234C142.265 13.762 142.559 14.554 142.559 15.61V22H140.507V16.15C140.483 15.418 140.327 14.887 140.039 14.557C139.751 14.227 139.301 14.062 138.689 14.062C138.341 14.062 138.029 14.125 137.753 14.251C137.477 14.377 137.243 14.551 137.051 14.773C136.859 14.995 136.709 15.256 136.601 15.556C136.493 15.856 136.439 16.174 136.439 16.51V22H134.387V12.694ZM153.147 22H151.203V20.74H151.167C150.891 21.28 150.489 21.667 149.961 21.901C149.433 22.135 148.876 22.252 148.287 22.252C147.555 22.252 146.916 22.123 146.37 21.865C145.824 21.607 145.371 21.256 145.011 20.812C144.651 20.368 144.382 19.843 144.201 19.237C144.021 18.631 143.931 17.98 143.931 17.284C143.931 16.444 144.045 15.718 144.273 15.106C144.501 14.494 144.804 13.99 145.182 13.594C145.56 13.198 145.992 12.907 146.478 12.721C146.964 12.535 147.459 12.442 147.963 12.442C148.251 12.442 148.545 12.469 148.845 12.523C149.145 12.577 149.433 12.664 149.709 12.784C149.985 12.904 150.24 13.057 150.474 13.243C150.708 13.429 150.903 13.648 151.059 13.9H151.095V9.148H153.147V22ZM145.983 17.446C145.983 17.842 146.034 18.232 146.136 18.616C146.238 19 146.394 19.342 146.604 19.642C146.815 19.942 147.081 20.182 147.405 20.362C147.729 20.542 148.113 20.632 148.557 20.632C149.013 20.632 149.406 20.536 149.736 20.344C150.066 20.152 150.336 19.9 150.546 19.588C150.756 19.276 150.912 18.925 151.014 18.535C151.116 18.145 151.167 17.746 151.167 17.338C151.167 16.306 150.936 15.502 150.474 14.926C150.012 14.35 149.386 14.062 148.593 14.062C148.113 14.062 147.708 14.161 147.378 14.359C147.048 14.557 146.778 14.815 146.568 15.133C146.358 15.451 146.208 15.811 146.118 16.213C146.028 16.615 145.983 17.026 145.983 17.446Z" fill="white"/>
</svg>
